<svg width="243" height="299" viewBox="0 0 243 299" fill="none" xmlns="http://www.w3.org/2000/svg">
<path d="M242.729 2.79974C242.839 1.42344 241.813 0.21831 240.437 0.108007C239.06 -0.00229559 237.855 1.024 237.745 2.4003L242.729 2.79974ZM78.7294 116.575L76.3496 117.341L78.7294 116.575ZM1.72047 277.682C0.698059 278.61 0.621453 280.191 1.54937 281.213L16.6707 297.875C17.5986 298.897 19.1796 298.974 20.2021 298.046C21.2245 297.118 21.3011 295.537 20.3732 294.514L6.93201 279.704L21.742 266.263C22.7644 265.335 22.841 263.754 21.9131 262.732C20.9852 261.709 19.4041 261.633 18.3817 262.561L1.72047 277.682ZM237.745 2.4003C233.961 49.6164 202.506 104.053 167.793 133.451C150.405 148.177 132.686 156.212 117.568 154.541C102.776 152.906 89.4803 141.816 81.1091 115.809L76.3496 117.341C85.0571 144.393 99.5281 157.577 117.019 159.511C134.185 161.409 153.266 152.307 171.024 137.267C206.604 107.135 238.824 51.5256 242.729 2.79974L237.745 2.4003ZM81.1091 115.809C78.5841 107.965 77.9423 102.093 78.5933 97.8751C79.2268 93.7708 81.0637 91.2719 83.6886 89.8192C86.4421 88.2954 90.4013 87.7379 95.5269 88.3334C100.618 88.9249 106.612 90.6267 113.208 93.3231C139.669 104.141 174.266 130.313 195.896 159.743C206.705 174.45 214.12 189.763 215.819 204.2C217.503 218.505 213.599 232.052 201.516 243.605C189.321 255.265 168.622 265.053 136.422 271.203C104.259 277.346 60.8561 279.814 3.52161 277.036L3.27963 282.03C60.8394 284.819 104.67 282.358 137.36 276.114C170.015 269.878 191.79 259.822 204.972 247.219C218.265 234.509 222.639 219.373 220.785 203.616C218.946 187.99 211.006 171.86 199.925 156.782C177.774 126.642 142.45 99.8757 115.1 88.6949C108.243 85.8916 101.791 84.0276 96.1039 83.3668C90.4508 82.71 85.2984 83.2137 81.2675 85.4445C77.1081 87.7464 74.4879 91.6955 73.6518 97.1124C72.8332 102.416 73.7092 109.138 76.3496 117.341L81.1091 115.809Z" fill="url(#paint0_linear_202_692)"/>
<defs>
<linearGradient id="paint0_linear_202_692" x1="11.4498" y1="269.048" x2="46.7994" y2="-2.2829" gradientUnits="userSpaceOnUse">
<stop stop-color="#CE4993"/>
<stop offset="1" stop-color="#3B1752"/>
</linearGradient>
</defs>
</svg>
