<svg width="78" height="67" viewBox="0 0 78 67" fill="none" xmlns="http://www.w3.org/2000/svg">
<path d="M76.4224 18.3007C69.3489 7.08887 60.2304 0.13517 56.0556 2.76904C51.8808 5.4029 54.2306 16.627 61.3041 27.8388C65.2683 34.1222 69.9146 38.3121 71.6818 37.1971C73.4491 36.0822 71.6681 30.0846 67.7039 23.8012C60.6304 12.5894 51.5119 5.63566 47.3371 8.26952C43.1623 10.9034 45.512 22.1275 52.5855 33.3393C56.5497 39.6227 61.196 43.8126 62.9633 42.6976C64.7306 41.5826 62.9496 35.5851 58.9854 29.3017C51.9119 18.0898 42.7726 11.1493 38.5722 13.7993C34.3719 16.4493 36.7008 27.6865 43.7743 38.8983C47.7385 45.1817 52.3848 49.3716 54.1521 48.2566C55.9194 47.1416 54.1382 41.1441 50.174 34.8608C43.1005 23.6489 33.9821 16.6951 29.8073 19.329C25.6325 21.9629 27.9824 33.1869 35.056 44.3987C39.0201 50.6821 43.6662 54.8721 45.4335 53.7571C47.2008 52.6421 45.4199 46.6445 41.4557 40.3611C34.3822 29.1493 25.2635 22.1957 21.0887 24.8296C16.9139 27.4634 19.2639 38.6874 26.3374 49.8992C30.3015 56.1826 34.9479 60.3725 36.7149 59.2577C38.4822 58.1427 36.7013 52.145 32.7371 45.8617C25.6636 34.6498 16.545 27.6962 12.3704 30.3299C8.19558 32.9638 10.5453 44.1879 17.6188 55.3998C21.583 61.6832 26.2293 65.873 27.9966 64.758C29.7636 63.6432 27.9827 57.6456 24.0185 51.3622C16.945 40.1504 7.80587 33.2097 3.60549 35.8597C-0.594879 38.5097 1.73404 49.7469 8.80755 60.9587" stroke="#EE5D6C" stroke-width="3" stroke-linecap="round"/>
</svg>
