<svg width="98" height="98" viewBox="0 0 98 98" fill="none" xmlns="http://www.w3.org/2000/svg">
<path fill-rule="evenodd" clip-rule="evenodd" d="M66.6559 49.0191V49.0191L66.7793 49.1971L67.141 49.3824L67.7345 49.582L68.5595 49.8028L69.62 50.0521L70.9224 50.3374L72.4726 50.6665L74.2736 51.0472L76.3219 51.4869L78.6033 51.9919L81.0881 52.566L83.7268 53.2097L86.4467 53.9184L89.1501 54.6812L91.7165 55.4795L94.0098 56.2876L95.8896 57.0733L97.2275 57.8007L97.9235 58.4341L97.9218 58.9425L97.2192 59.3033L95.8657 59.5061L93.9573 59.5526L91.6209 59.4564L88.9977 59.2395L86.2263 58.9294L83.4305 58.5554L80.7115 58.1453L78.1453 57.7238L75.7833 57.3115L73.6562 56.9246L71.7784 56.5751L70.1528 56.272L68.7749 56.0218L67.6366 55.8297L66.7291 55.7002L66.0449 55.6382L65.5805 55.6497L65.3375 55.7431L65.3223 55.9287L65.5281 56.2116L65.9443 56.5951L66.5665 57.085L67.3949 57.689L68.4321 58.4162L69.681 59.2763L71.1423 60.278L72.812 61.4278L74.6774 62.7277L76.7136 64.1723L78.8796 65.7465L81.1155 67.4219L83.3405 69.1553L85.4551 70.8877L87.3455 72.546L88.8936 74.0482L89.9896 75.3106L90.5464 76.258L90.5128 76.8336L89.882 77.0076L88.6926 76.7808L87.0236 76.1844L84.9821 75.2739L82.6886 74.1213L80.2631 72.8048L77.8136 71.4006L75.4287 69.9762L73.1751 68.5871L71.0977 67.2756L69.2233 66.0712L67.5637 64.9932L66.1201 64.0527L64.8874 63.255L63.8565 62.6024L63.0174 62.0958L62.361 61.7364L61.8807 61.5276L61.5736 61.4764L61.4414 61.5947L61.4796 61.8881L61.6761 62.3547L62.0235 62.9971L62.5183 63.8216L63.1591 64.8372L63.9449 66.054L64.8739 67.4809L65.9409 69.1239L67.1354 70.9821L68.4389 73.0448L69.8227 75.2866L71.2457 77.6639L72.6533 80.1121L73.979 82.544L75.1472 84.8531L76.0794 86.92L76.703 88.6234L76.9606 89.8547L76.8191 90.5323L76.2749 90.6138L75.3556 90.1025L74.1162 89.0463L72.6306 87.5299L70.9822 85.6618L69.2535 83.5601L67.5184 81.3391L65.8371 79.1002L64.2542 76.9253L62.799 74.8764L61.4878 72.9957L60.3264 71.3092L59.3134 69.8305L58.4427 68.5643L57.7055 67.51L57.0922 66.6647L56.5938 66.0259L56.2022 65.5931L55.9115 65.3702L55.7182 65.3672L55.618 65.5925L55.6003 66.0395L55.6567 66.7063L55.7809 67.5962L55.9682 68.7162L56.2138 70.0751L56.5128 71.6813L56.8588 73.5396L57.243 75.6479L57.6537 77.9929L58.0749 80.5453L58.4867 83.2555L58.8644 86.0495L59.1805 88.8281L59.4058 91.4691L59.5126 93.8343L59.478 95.7824L59.288 97.1846L58.9396 97.9418L58.4426 98L57.8183 97.3579L57.0973 96.0676L56.3152 94.2258L55.5079 91.9595L54.708 89.4089L53.9419 86.7108L53.2286 83.9874L52.5797 81.3383L52.0002 78.8383L51.4901 76.5386L51.0455 74.4703L50.6605 72.6487L50.3277 71.078L50.0393 69.7557L49.7874 68.6758L49.5647 67.8319L49.3638 67.2198L49.1777 66.8394L48.9994 66.6965L48.8218 66.8004L48.6374 67.1437L48.4393 67.719L48.2205 68.5257L47.9738 69.5677L47.6918 70.8509L47.3666 72.3818L46.9904 74.1635L46.5557 76.1931L46.0564 78.4576L45.488 80.9285L44.85 83.5583L44.1464 86.2759L43.3876 88.9856L42.5915 91.5687L41.7833 93.8897L40.9948 95.8081L40.2617 97.1937L39.6198 97.9439L39.1007 97.9986L38.7277 97.3504L38.5123 96.0453L38.4537 94.1761L38.5393 91.8679L38.7475 89.2614L39.0511 86.496L39.421 83.6972L39.829 80.968L40.2502 78.3865L40.6637 76.0061L41.0531 73.8589L41.4058 71.9604L41.7127 70.3142L41.9672 68.9164L42.1641 67.7589L42.2987 66.833L42.3663 66.131L42.3608 65.6489L42.2744 65.388L42.0965 65.3546L41.8215 65.5434L41.4463 65.9432L40.9653 66.5492L40.371 67.3614L39.6541 68.3822L38.8053 69.6146L37.8155 71.0596L36.678 72.7136L35.3904 74.5647L33.9574 76.5893L32.3932 78.7476L30.7251 80.9814L28.9949 83.2115L27.2606 85.3396L25.594 87.2529L24.0768 88.833L22.7928 89.969L21.8183 90.5713L21.2117 90.5857L21.0055 90.0013L21.201 88.8537L21.7696 87.2187L22.6573 85.2017L23.7931 82.923L25.0989 80.5031L26.4983 78.0511L27.9227 75.6575L29.3159 73.3907L30.6344 71.2974L31.8477 69.4056L32.9359 67.7281L33.8873 66.267L34.6962 65.0173L35.3601 63.9703L35.8782 63.116L36.2493 62.4451L36.4702 61.9508L36.5343 61.6298L36.43 61.4836L36.1505 61.5087L35.6979 61.6929L35.0699 62.0286L34.2605 62.512L33.2608 63.1413L32.0608 63.916L30.6514 64.834L29.0263 65.8907L27.1856 67.076L25.1392 68.3722L22.9111 69.7514L20.5432 71.1735L18.0987 72.5852L15.6626 73.9205L13.3403 75.1045L11.2503 76.0587L9.5143 76.7094L8.2424 76.9979L7.51886 76.8886L7.38944 76.3757L7.85457 75.4843L8.86971 74.2674L10.3527 72.7979L12.1965 71.1588L14.2832 69.433L16.4978 67.6955L18.7379 66.0075L20.9196 64.4149L22.9796 62.9483L24.8742 61.6248L26.5762 60.4511L28.0712 59.4261L29.354 58.544L30.4247 57.7963L31.2861 57.1733L31.9411 56.6658L32.3902 56.2658L32.63 55.9672L32.651 55.7662L32.4439 55.6589L32.0145 55.6349L31.3654 55.6857L30.4939 55.8048L29.3929 55.9872L28.0537 56.2285L26.468 56.5235L24.6305 56.8662L22.5425 57.2479L20.2164 57.6571L17.6798 58.0783L14.9807 58.4918L12.191 58.8734L9.40794 59.1956L6.75206 59.4292L4.36045 59.5464L2.3748 59.5237L0.925558 59.3463L0.114552 59.0102L0 58.5242L0.587383 57.9088L1.82871 57.194L3.63031 56.4152L5.86704 55.6083L8.39936 54.8065L11.0895 54.0367L13.8139 53.3184L16.4711 52.6639L18.9843 52.0786L21.3005 51.5628L23.3872 51.1131L25.2281 50.7235L26.8182 50.3867L28.1596 50.0949L29.2582 49.8404L30.1204 49.6155L30.7506 49.4131L31.1495 49.226L31.3117 49.0473L31.2274 48.8698L30.9029 48.6861L30.3462 48.4893L29.5583 48.2724L28.5356 48.0281L27.2722 47.749L25.7618 47.4274L24.0007 47.0554L21.9911 46.6256L19.7454 46.1314L17.2903 45.5684L14.6718 44.9356L11.9589 44.2367L9.24538 43.4815L6.64833 42.6873L4.30208 41.8787L2.34726 41.0871L0.915472 40.348L0.112172 39.6973L0.00111153 39.1673L0.594189 38.7819L1.84937 38.5538L3.67729 38.483L5.95477 38.5578L8.54186 38.7573L11.2985 39.0544L14.0978 39.4202L16.8347 39.8263L19.4294 40.2475L21.8264 40.6624L23.9923 41.0543L25.9101 41.4104L27.5757 41.7214L28.9926 41.9803L30.1685 42.182L31.1122 42.3218L31.8316 42.3949L32.331 42.3956L32.6096 42.316L32.6611 42.1456L32.4896 41.8783L32.1066 41.5111L31.5171 41.0387L30.7216 40.4535L29.7179 39.7465L28.5029 38.9082L27.0753 37.9296L25.4382 36.8036L23.6027 35.5275L21.5914 34.1052L19.4426 32.5501L17.213 30.8883L14.98 29.1606L12.8405 27.4235L10.9064 25.7481L9.29606 24.2154L8.1215 22.9094L7.47433 21.9075L7.41219 21.2698L7.94937 21.0311L9.05411 21.1954L10.6533 21.7362L12.6435 22.6012L14.905 23.7204L17.3171 25.016L19.7693 26.4111L22.1695 27.8363L24.4476 29.2341L26.5552 30.5603L28.4631 31.7833L30.1573 32.8824L31.635 33.8453L32.9008 34.6659L33.9632 35.3416L34.8322 35.8716L35.5171 36.2546L36.0252 36.4877L36.3599 36.5646L36.52 36.4742L36.5081 36.2085L36.3362 35.7695L36.0125 35.1555L35.541 34.3605L34.9234 33.376L34.1606 32.1919L33.2542 30.799L32.2086 29.1906L31.0335 27.3662L29.7457 25.3348L28.3722 23.1192L26.9522 20.7596L25.538 18.3175L24.1943 15.8763L22.9958 13.5398L22.0209 11.4262L21.3438 9.65706L21.0249 8.34424L21.1019 7.57452L21.583 7.39709L22.4456 7.8161L23.6386 8.79035L25.0904 10.2403L26.7186 12.0602L28.4398 14.1326L30.1782 16.3418L31.8715 18.5839L33.4724 20.7736L34.9493 22.8459L36.2841 24.7556L37.4694 26.4741L38.5057 27.9864L39.3985 29.2866L40.1564 30.3745L40.7887 31.2528L41.3049 31.9243L41.7131 32.3901L42.0196 32.6469L42.2282 32.6859L42.3426 32.4967L42.3728 32.0846L42.3277 31.4529L42.2139 30.599L42.0364 29.5162L41.7997 28.1959L41.5089 26.6295L41.1699 24.8115L40.791 22.7425L40.3836 20.4337L39.9628 17.9115L39.5481 15.2222L39.1631 12.4355L38.8352 9.64683L38.5935 6.97502L38.4662 4.55631L38.477 2.5326L38.6418 1.03591L38.9653 0.170996L39.4398 0L40.0457 0.532751L40.7535 1.72532L41.5284 3.48719L42.334 5.69506L43.137 8.20987L43.91 10.8931L44.6326 13.6198L45.2923 16.2864L45.8829 18.8142L46.4039 21.1483L46.8586 23.2548L47.2526 25.1162L47.5932 26.7268L47.8882 28.0883L48.1453 29.2064L48.3722 30.0875L48.5761 30.7364L48.7641 31.1539L48.9431 31.3354L49.1204 31.2707L49.3032 30.9649L49.4987 30.4263L49.7137 29.6566L49.9554 28.6525L50.2313 27.4081L50.5492 25.9171L50.9167 24.1753L51.3416 22.1846L51.8303 19.9561L52.3875 17.5154L53.0146 14.9068L53.7083 12.1974L54.4592 9.47902L55.2509 6.86703L56.0591 4.49484L56.8531 2.50311L57.5975 1.02485L58.2562 0.168237L58.7966 0.000838286L59.194 0.538878L59.4348 1.74447L59.5178 3.53157L59.4539 5.77905L59.2635 8.34759L58.9732 11.0965L58.6119 13.8976L58.2082 16.6437L57.7876 19.2529L57.3716 21.668L56.9775 23.8538L56.6183 25.7924L56.3035 27.4786L56.0403 28.9156L55.834 30.1107L55.6891 31.073L55.6105 31.8102L55.6038 32.3272L55.6767 32.6238L55.8394 32.6935L56.0988 32.5392L56.4578 32.1726L56.9214 31.5993L57.4971 30.8201L58.1938 29.8327L59.021 28.6342L59.9878 27.223L61.1015 25.6017L62.3653 23.7807L63.7758 21.7816L65.3205 19.6412L66.9746 17.4147L68.6983 15.1779L70.4365 13.0262L72.1191 11.0708L73.6658 9.42984L74.9923 8.21644L76.0206 7.5244L76.6887 7.4145L76.9597 7.90469L76.8269 8.96679L76.3147 10.5306L75.4734 12.4946L74.372 14.7398L73.088 17.145L71.6987 19.5985L70.2741 22.0065L68.8727 24.2972L67.5399 26.4204L66.3083 28.3455L65.1992 30.0576L64.2255 31.5529L63.3937 32.8358L62.7066 33.9144L62.1652 34.7987L61.7706 35.4982L61.5254 36.0204L61.4357 36.369L61.5123 36.5432L61.7641 36.5445L62.1891 36.3849L62.7888 36.073L63.5688 35.6131L64.5376 35.0069L65.705 34.2553L67.0805 33.3599L68.6711 32.3248L70.4778 31.1591L72.4926 29.8789L74.6941 28.5106L77.0433 27.0921L79.4808 25.6746L81.9248 24.3223L84.273 23.1089L86.4082 22.113L88.2084 21.4095L89.5607 21.0603L90.3757 21.105L90.601 21.5545L90.2287 22.3885L89.2965 23.5581L87.8813 24.9927L86.0872 26.6105L84.0313 28.3278L81.8298 30.068L79.5877 31.7673L77.3919 33.3775L75.309 34.8656L73.3859 36.2126L71.652 37.4103L70.1235 38.4586L68.8068 39.363L67.7025 40.1315L66.8079 40.7737L66.1202 41.299L65.6382 41.7156L65.3646 42.0301L65.3078 42.2465L65.4788 42.3681L65.8732 42.4047L66.4871 42.3654L67.3229 42.2568L68.3868 42.0841L69.6874 41.8519L71.2334 41.5651L73.0307 41.2295L75.0793 40.8534L77.3689 40.4476L79.8746 40.0271L82.5519 39.6109L85.333 39.2224L88.1247 38.8888L90.8097 38.6391L93.2529 38.5017L95.3125 38.5008L96.8549 38.653L97.7727 38.9641L98 39.4273L97.5225 40.0239L96.3801 40.7251L94.66 41.4962L92.4834 42.3009L89.9887 43.1056L87.315 43.882L84.5886 44.6095L81.9149 45.2747L79.3746 45.8711L77.0244 46.3978L74.8997 46.8577L73.019 47.2565L71.389 47.6012L70.0083 47.8996L68.8715 48.1595L67.972 48.3886L67.305 48.5942L66.8691 48.7832L66.6686 48.9628L66.6559 49.0191Z" fill="url(#paint0_linear_316_143)"/>
<defs>
<linearGradient id="paint0_linear_316_143" x1="677.005" y1="357.676" x2="699.376" y2="307.066" gradientUnits="userSpaceOnUse">
<stop stop-color="#EE5D6C"/>
<stop offset="1" stop-color="#EEAF61"/>
</linearGradient>
</defs>
</svg>
