<svg width="361" height="357" viewBox="0 0 361 357" fill="none" xmlns="http://www.w3.org/2000/svg">
<g filter="url(#filter0_d_316_141)">
<path fill-rule="evenodd" clip-rule="evenodd" d="M72.5406 72.2638V72.2638L74.8577 68.0733L77.1081 64.1026L79.2841 60.3769L81.3786 56.9198L83.3848 53.7536L85.2964 50.8987L87.108 48.3737L88.8143 46.1952L90.411 44.3779L91.8943 42.9343L93.2611 41.8745L94.5089 41.2065L95.636 40.9361L96.6415 41.0665L97.525 41.5988L98.287 42.5314L98.9285 43.8605L99.4516 45.5801L99.8587 47.6817L100.153 50.1545L100.339 52.9857L100.42 56.1602L100.403 59.661L100.292 63.469L100.094 67.5635L99.8158 71.9221L99.465 76.5205L99.0491 81.3334L98.5762 86.3339L98.0548 91.4944L97.4936 96.7858L96.9016 102.179L96.288 107.643L95.662 113.148L95.033 118.663L94.4104 124.156L93.8036 129.598L93.2217 134.958L92.6739 140.205L92.1691 145.311L91.7159 150.246L91.3227 154.984L90.9974 159.499L90.7477 163.764L90.5806 167.757L90.5029 171.456L90.5205 174.841L90.6392 177.892L90.8638 180.595L91.1987 182.935L91.6476 184.899L92.2134 186.478L92.8984 187.663L93.7044 188.451L94.6321 188.838L95.6818 188.822L96.8529 188.407L98.1441 187.596L99.5535 186.396L101.078 184.816L102.715 182.866L104.46 180.56L106.309 177.913L108.255 174.943L110.294 171.669L112.419 168.112L114.623 164.294L116.899 160.241L119.238 155.977L121.633 151.53L124.075 146.928L126.556 142.199L129.065 137.374L131.595 132.482L134.136 127.554L136.679 122.622L139.213 117.715L141.73 112.865L144.221 108.103L146.676 103.457L149.087 98.9573L151.445 94.6323L153.742 90.509L155.969 86.6137L158.12 82.9711L160.187 79.6043L162.164 76.5352L164.044 73.7834L165.823 71.3671L167.495 69.3022L169.056 67.6027L170.502 66.2803L171.831 65.3446L173.041 64.8028L174.129 64.6599L175.096 64.9183L175.941 65.5784L176.664 66.6379L177.268 68.0922L177.753 69.9345L178.124 72.1556L178.384 74.7441L178.535 77.6864L178.585 80.9668L178.537 84.5676L178.397 88.4693L178.173 92.6504L177.871 97.088L177.499 101.758L177.064 106.633L176.575 111.688L176.04 116.893L175.468 122.22L174.868 127.639L174.249 133.12L173.621 138.631L172.993 144.142L172.375 149.623L171.775 155.042L171.203 160.369L170.668 165.574L170.178 170.629L169.743 175.504L169.371 180.174L169.069 184.612L168.845 188.793L168.706 192.694L168.658 196.295L168.707 199.576L168.859 202.518L169.118 205.106L169.489 207.328L169.975 209.17L170.578 210.624L171.302 211.684L172.146 212.344L173.113 212.602L174.201 212.459L175.411 211.917L176.74 210.982L178.187 209.659L179.748 207.96L181.419 205.895L183.198 203.479L185.078 200.727L187.055 197.658L189.122 194.291L191.273 190.648L193.5 186.753L195.797 182.63L198.155 178.305L200.566 173.805L203.021 169.159L205.512 164.397L208.029 159.547L210.564 154.64L213.106 149.708L215.647 144.78L218.177 139.888L220.687 135.063L223.167 130.334L225.609 125.732L228.004 121.285L230.344 117.021L232.619 112.968L234.823 109.15L236.948 105.593L238.987 102.319L240.934 99.349L242.782 96.7022L244.527 94.3962L246.164 92.4464L247.689 90.8658L249.098 89.6657L250.389 88.8548L251.561 88.4397L252.61 88.4244L253.538 88.8109L254.344 89.5986L255.029 90.7844L255.595 92.3632L256.044 94.3273L256.379 96.6668L256.603 99.3696L256.722 102.421L256.739 105.806L256.662 109.505L256.495 113.498L256.245 117.763L255.92 122.278L255.526 127.016L255.073 131.951L254.568 137.057L254.021 142.304L253.439 147.664L252.832 153.106L252.209 158.599L251.58 164.114L250.954 169.619L250.341 175.083L249.749 180.476L249.188 185.768L248.666 190.928L248.193 195.929L247.777 200.742L247.426 205.34L247.148 209.698L246.951 213.793L246.84 217.601L246.822 221.102L246.904 224.276L247.089 227.107L247.384 229.58L247.791 231.682L248.314 233.401L248.955 234.731L249.717 235.663L250.601 236.195L251.606 236.326L252.733 236.055L253.981 235.388L255.348 234.328L256.831 232.884L258.428 231.067L260.134 228.888L261.946 226.363L263.858 223.508L265.864 220.342L267.958 216.885L270.134 213.159L272.385 209.189" fill="url(#paint0_linear_316_141)"/>
</g>
<defs>
<filter id="filter0_d_316_141" x="0.540527" y="0.936111" width="359.844" height="355.39" filterUnits="userSpaceOnUse" color-interpolation-filters="sRGB">
<feFlood flood-opacity="0" result="BackgroundImageFix"/>
<feColorMatrix in="SourceAlpha" type="matrix" values="0 0 0 0 0 0 0 0 0 0 0 0 0 0 0 0 0 0 127 0" result="hardAlpha"/>
<feOffset dx="8" dy="40"/>
<feGaussianBlur stdDeviation="40"/>
<feComposite in2="hardAlpha" operator="out"/>
<feColorMatrix type="matrix" values="0 0 0 0 0 0 0 0 0 0 0 0 0 0 0 0 0 0 0.25 0"/>
<feBlend mode="normal" in2="BackgroundImageFix" result="effect1_dropShadow_316_141"/>
<feBlend mode="normal" in="SourceGraphic" in2="effect1_dropShadow_316_141" result="shape"/>
</filter>
<linearGradient id="paint0_linear_316_141" x1="-26.7149" y1="0.657017" x2="85.0232" y2="-75.7652" gradientUnits="userSpaceOnUse">
<stop stop-color="#EE5D6C"/>
<stop offset="1" stop-color="#6A0D83"/>
</linearGradient>
</defs>
</svg>
